<svg xmlns="http://www.w3.org/2000/svg" viewBox="0 0 58 60">
  <defs/>
  <path fill="none" d="M-1-1h60v62H-1z"/>
  <g>
    <ellipse cx="28.96008" cy="7.91326" fill="#cfc482" rx="13.67488" ry="6.47883"/>
    <g fill="#c2bfb5">
      <ellipse cx="29.43822" cy="32.63323" rx="17.88253" ry="15.27666"/>
      <ellipse cx="24.75242" cy="22.92694" rx="17.88253" ry="15.27666"/>
      <ellipse cx="33.21555" cy="23.40508" rx="17.88253" ry="15.27666"/>
      <ellipse cx="27.23876" cy="31.19881" rx="17.88253" ry="15.27666"/>
    </g>
    <ellipse cx="48.87055" cy="50.73202" fill="#939597" rx="3.41713" ry="9.39625" transform="rotate(36.768 48.87054825 50.73201752)"/>
    <ellipse cx="8.67204" cy="50.78165" fill="#939597" rx="3.41713" ry="9.39625" transform="rotate(-27.3 8.67203999 50.78164673)"/>
    <path fill="#c2bfb5" d="M46.77405606 11.7533204l7.95040857-3.87767335 2.17987943 4.46941518-7.95040856 3.87767335zM8.86641152 16.78231972L1.4478336 11.9646389l2.70831564-4.17044036 7.41857792 4.81768083z"/>
    <g fill="#939597">
      <ellipse cx="29.11807" cy="20.81375" rx="17.97816" ry="9.99318"/>
      <ellipse cx="28.879" cy="26.26458" rx="16.63936" ry="9.99318"/>
      <ellipse cx="20.67885" cy="30.0419" rx="7.53075" ry="9.99318"/>
      <ellipse cx="36.36899" cy="30.54123" rx="7.53075" ry="9.99318"/>
      <path d="M41.1365218 36.02603012l1.19664596.45752872-1.57197845 4.1114395-1.19664595-.45752873zM15.46228548 36.6525376l1.7458521-.64589682 1.47711729 3.99263197-1.7458521.64589683z"/>
    </g>
    <g fill="#f5df4d" fill-opacity="null">
      <ellipse cx="28.99539" cy="48.58523" rx="10.68403" ry="9.7782" transform="rotate(-3.885 28.99538803 48.58522797)"/>
      <ellipse cx="29.256" cy="44.53341" rx="12.27259" ry="9.7782" transform="rotate(-3.885 29.25600052 44.53340912)"/>
      <ellipse cx="29.1407" cy="35.7285" rx="7.59305" ry="5.68238"/>
    </g>
    <g fill="#939597">
      <path d="M40.73148305 45.6661477l4.9538686 1.0357145-2.21345402 10.58704926-4.9538686-1.0357145z"/>
      <path d="M48.03903597 38.33727558l4.09618861 3.90891239-7.46707266 7.82482055-4.0961886-3.9089124z"/>
    </g>
    <g fill="#939597">
      <path d="M11.13747333 47.6382625l4.80044294-2.19953387 4.34148805 9.47521923-4.80044295 2.19953387z"/>
      <path d="M6.11189308 41.63584072l4.10748939-3.3182424 6.5496194 8.10745234-4.10748938 3.3182424z"/>
    </g>
    <g fill="#000" fill-rule="nonzero">
      <path d="M47.035 17.629c-.58485-1.27675-1.52142-2.3604-2.7-3.124-1.7289-1.16428-3.62588-2.05695-5.625-2.647-6.31476-2.00001-13.09324-2.00001-19.408 0-2.00078.58826-3.89976 1.47924-5.631 2.642-1.1899.77392-2.13394 1.87166-2.721 3.164l-.13.357c-1.087 3.282.33 10.392 3.888 19.508.12385.34101.42268.58818.78086.64589s.71952-.0831.94421-.36795c.22469-.28485.27747-.66905.13793-1.00394C12.638 26.725 12 20.819 12.709 18.682l.105-.292c.45243-.92236 1.14988-1.70249 2.016-2.255 1.55963-1.04398 3.26926-1.84417 5.07-2.373 5.91974-1.87502 12.27426-1.87502 18.194 0 1.80328.52884 3.51531 1.32972 5.077 2.375.86135.54212 1.55406 1.31415 2 2.229l.084.216c.928 2.813-.54 9.8-3.832 18.223-.20103.51445.05305 1.09447.5675 1.2955s1.09447-.05305 1.2955-.5675c3.559-9.11 4.968-16.245 3.852-19.621l-.103-.283zM33.44 52.542c-2.64381 1.93486-6.23619 1.93486-8.88 0-.45784-.30928-1.07972-.18884-1.389.269s-.18884 1.07972.269 1.389c3.31776 2.40128 7.80224 2.40128 11.12 0 .29599-.20007.46277-.54285.4375-.89922-.02527-.35638-.23874-.6722-.56-.8285s-.70151-.12935-.9975.07072v-.001z"/>
      <path d="M55.812 8.748c-.87659-1.16883-2.46772-1.53621-3.768-.87l-5.919 3.03c-.053-.035-.108-.069-.162-.1-.01134-.08665-.03421-.1714-.068-.252C45.679 10.122 40.486 0 29 0S12.321 10.122 12.105 10.553c-.03378.08025-.05665.16467-.068.251l-.162.1-5.919-3.026c-1.30052-.66599-2.8917-.29818-3.768.871l-.7.929c-.49865.66753-.69721 1.51238-.54813 2.33215.14909.81978.63239 1.54062 1.33413 1.98985l4.692 3.005c-1.53 5.222.945 13.965 3.749 21.294-.80899-.33208-1.72463-.28138-2.492.138l-4.841 2.9c-.86.514-1.768 1.761-1.216 4.785.51289 2.38949 1.43479 4.67241 2.725 6.748 2.3 3.838 5.589 7.137 8.128 7.137.36958-.00502.73366-.09032 1.067-.25.0892-.02377.17468-.05978.254-.107l4.841-2.9c.18173-.11119.34814-.24566.495-.4C22.23883 58.65663 25.55232 59.95373 29 60c3.44729-.04544 6.76073-1.34146 9.324-3.647.1484.15468.31651.28917.5.4l4.841 2.9c.07966.0475.16546.08384.255.108.33322.15889.69687.24383 1.066.249 2.539 0 5.831-3.3 8.128-7.137 1.29011-2.07529 2.212-4.35785 2.725-6.747.552-3.024-.356-4.271-1.216-4.785l-4.841-2.9c-.7681-.41872-1.68417-.46832-2.493-.135 2.8-7.323 5.274-16.057 3.749-21.3L55.726 14c.70231-.44986 1.18565-1.1718 1.33401-1.99253.14837-.82074-.05164-1.6662-.55201-2.33347l-.696-.926zM29 2c6.854 0 11.272 4.193 13.463 6.992-.8-.335-1.636-.656-2.537-.944-7.10893-2.25849-14.74307-2.25849-21.852 0-.9.288-1.735.609-2.537.944C17.728 6.193 22.146 2 29 2zM2.908 11.655c-.05026-.27366.01648-.55585.184-.778l.7-.928c.29191-.38996.82234-.51286 1.256-.291l5.052 2.587c-.94152.82288-1.73678 1.79937-2.352 2.888l-4.395-2.814c-.23533-.14868-.39694-.38982-.445-.664zm3.7 40.187c-1.16786-1.86911-2.00478-3.92556-2.474-6.079-.289-1.584-.07-2.5.276-2.709s1.26.034 2.518 1.037c1.67618 1.43149 3.09264 3.1416 4.187 5.055 1.1687 1.86844 2.006 3.92464 2.475 6.078.289 1.585.069 2.5-.276 2.71-.761.455-3.825-1.276-6.707-6.092h.001zm11.546 3.2L15.711 56.5c-.0035-.54817-.05537-1.09495-.155-1.634-.5127-2.38924-1.43461-4.67186-2.725-6.747-1.21899-2.1178-2.79446-4.00924-4.657-5.591-.4277-.3426-.88481-.64678-1.366-.909l2.442-1.461c.761-.452 3.823 1.276 6.7 6.092s2.968 8.33 2.203 8.788l.001.004zM29 58c-3.18062-.06935-6.21538-1.34769-8.487-3.575.31-2.415-.937-6.02-2.841-9.2-.208-.348-.427-.689-.65-1.025l6.953-10.66c1.10772-1.69776 2.99783-2.72138 5.025-2.72138s3.91728 1.02362 5.025 2.72138l6.954 10.66c-.224.337-.443.678-.651 1.027-1.9 3.183-3.151 6.788-2.841 9.2C35.21507 56.65358 32.18034 57.93118 29 58zm24.867-12.237c-.46922 2.15344-1.30614 4.20989-2.474 6.079-2.882 4.817-5.94 6.547-6.7 6.092-.346-.207-.566-1.125-.277-2.71.469-2.15336 1.3063-4.20956 2.475-6.078 1.09435-1.9134 2.51082-3.62351 4.187-5.055.61186-.58289 1.38512-.96795 2.219-1.105.10432-.00495.20801.01856.3.068.34.207.559 1.125.27 2.709zm-5.117-5.606l2.442 1.461c-.48119.26222-.9383.5664-1.366.909-1.86254 1.58176-3.43801 3.4732-4.657 5.591-1.29039 2.07514-2.2123 4.35776-2.725 6.747-.09963.53905-.1515 1.08583-.155 1.634l-2.442-1.461c-.765-.458-.683-3.975 2.2-8.789s5.94-6.544 6.703-6.092zm-4.331-.045c-.79285.72087-1.52314 1.50769-2.183 2.352L35.7 32.444c-1.47696-2.26368-3.9971-3.6285-6.7-3.6285s-5.22304 1.36482-6.7 3.6285l-6.534 10.02c-.66081-.84536-1.39173-1.63349-2.185-2.356C9.236 29.48 7.589 21.39 8.942 17.335l.137-.385c.72488-1.66195 1.91682-3.07761 3.431-4.075 1.89724-1.28288 3.97923-2.26857 6.174-2.923 6.71226-2.13098 13.91974-2.13098 20.632 0 2.19499.65467 4.27727 1.64034 6.175 2.923 1.50561.9909 2.6926 2.39599 3.418 4.046l.143.4c1.359 4.069-.288 12.161-4.633 22.791zm10.228-27.793l-4.39 2.812c-.61726-1.08806-1.41417-2.06383-2.357-2.886l5.052-2.587c.43343-.22207.9638-.09961 1.256.29l.7.929c.16676.22247.23337.50431.18386.7779s-.2107.5142-.44486.6641z"/>
      <path d="M29 36c-3.31234.00331-5.99669 2.68766-6 6v1c0 .55228.44772 1 1 1s1-.44772 1-1v-1c0-2.20914 1.79086-4 4-4s4 1.79086 4 4v1c0 .55228.44772 1 1 1s1-.44772 1-1v-1c-.00331-3.31234-2.68766-5.99669-6-6zM27 47h4c.55228 0 1-.44772 1-1s-.44772-1-1-1h-4c-.55228 0-1 .44772-1 1s.44772 1 1 1zM27 51h4c.55228 0 1-.44772 1-1s-.44772-1-1-1h-4c-.55228 0-1 .44772-1 1s.44772 1 1 1zM21.53 16.152c-.2249-.14057-.49643-.18603-.75486-.12639-.25843.05963-.48258.21949-.62314.44439l-5 8c-.29271.46944-.14944 1.08729.32 1.38s1.08729.14944 1.38-.32l5-8c.14021-.22539.18505-.49727.12465-.75575-.0604-.25848-.22108-.48233-.44665-.62225zM28.53 14.152c-.2249-.14057-.49643-.18603-.75486-.12639-.25843.05963-.48258.21949-.62314.44439l-10 16c-.29271.46944-.14944 1.08729.32 1.38s1.08729.14944 1.38-.32l10-16c.14021-.22539.18505-.49727.12465-.75575-.0604-.25848-.22108-.48233-.44665-.62225z"/>
    </g>
  </g>
</svg> 