<svg xmlns="http://www.w3.org/2000/svg" version="1.0" viewBox="0 0 960 960">
  <defs/>
  <path d="M459.9.4c-.2.2-3.8.6-7.9 1-4.1.4-9.3.9-11.5 1.2-2.2.3-5.1.7-6.5.9-1.4.2-2.5.4-2.5.5 0 .1-1.5.3-3.4.6-3.2.4-5.9.9-10.6 1.9-1.1.3-2.9.7-4 .9-4.2.9-13.3 3.5-22 6.2-4.9 1.5-9.2 2.9-9.5 2.9-.3.1-1.8.7-3.4 1.4-1.5.6-6.3 2.6-10.5 4.3-12.4 5.1-43 21.3-45.1 23.9-.3.3-1.6 1.2-2.9 1.9-1.4.7-3 1.6-3.5 2.1-.6.5-6 4.5-12 9-6 4.4-11.5 8.6-12.1 9.2-.7.7-3.4 3-6 5.2-6.6 5.5-29.1 28-34.1 34-2.3 2.8-5.8 7-7.9 9.5-2 2.5-4.4 5.4-5.3 6.5-3.9 4.8-16.2 22.6-16.2 23.5 0 .6-.3 1-.8 1-.4 0-1.2.9-1.7 1.9-.6 1.1-3.4 6-6.2 11-2.9 5-5.3 9.7-5.3 10.5 0 3.5-4 2.5-18.1-4.7-39.8-20.4-76.9-39.3-81.1-41.3-4.8-2.4-7.8-3.2-13.8-4-1.9-.2-4.7-.6-6.2-.8-1.5-.3-2.9 0-3.2.7-.3.9-.5.8-.5-.1-.1-.8-.6-1-1.3-.5-.7.4-2 .8-2.8.8-7.9.4-19 6.2-26.7 14-3.5 3.5-6.3 6.6-6.3 6.9 0 .3-2.5 3.8-5.6 7.8-5.8 7.4-10.8 16.8-11.9 22.3-3.3 15.5 1.4 32.8 11.9 43.8C47.5 220.6 59 229 60.9 229c.5 0 1.1.4 1.3.8.2.4 6.3 4.6 13.6 9.2 18.4 11.8 24.5 15.7 34.3 21.9 4.6 3 10.3 6.6 12.7 8 4.9 3 4.8 1.8.9 18.6-.5 2-1.7 10.2-2.3 16-.3 2.8-1.6 23.9-1.5 26 .1 8.5 1.2 32.8 1.5 35.1.3 1.7.8 6 1.1 9.5.3 3.5.9 8 1.2 9.9.3 1.9.6 5.1.8 7 .2 1.9.4 3.5.6 3.5.2 0 .3.9 1.4 8.9.3 2.8.9 5.4 1.1 5.8.3.5.7 2.3.9 4.1.4 4.2.9 6.7 4.5 23.2 1.7 7.7 3.3 15.1 3.6 16.5.2 1.4.7 3.2 1 4 .3.8.8 2.6 1 4 .3 1.4 1.8 7.3 3.5 13.3 1.6 5.9 3.1 11.5 3.3 12.5.1.9.5 2.4.8 3.2.3.8 1.1 3.3 1.6 5.5.6 2.2 2.5 8.4 4.2 13.7 1.6 5.3 3.2 10.5 3.3 11.5.2 1 .7 2.5 1 3.3.3.8 4.2 12.3 8.6 25.5 4.4 13.2 8.7 25.8 9.6 28 1 2.2 1.7 4.2 1.7 4.5 0 .3.6 2 1.4 3.9.8 1.8 1.4 3.9 1.4 4.6 0 .8.7 2.6 1.4 4.2 1.3 2.5 2.5 5.4 3.1 7.5.2.5.4 1 .5 1.3.1.3.3.8.5 1.2.1.5.7 2.1 1.3 3.6 1.6 3.8 1.6 5.2 0 4-4.2-3.4-27.2-3.6-31.3-.3-.5.4-2.1 1.1-3.5 1.5-1.4.4-4.9 2.3-7.8 4.1-2.9 1.9-5.4 3.4-5.6 3.4-.3 0-5.2 2.9-11.1 6.5-5.8 3.6-11 6.5-11.5 6.5-.6 0-1 .4-1 .8s-1.9 1.8-4.2 3c-2.4 1.2-5.6 3.1-7.3 4.2-1.6 1.1-3.9 2.4-5 3-1.1.5-4.5 2.5-7.5 4.4-3 1.9-7.1 4.3-9 5.4-7.2 4-15 9.3-15 10.3 0 .6-.4.7-1 .4-1.7-1-10.8 12.6-13 19.5-2.5 7.9-2.9 10-3.5 16.8-.3 3-.7 5.8-1 6.3-.4.5-.2.9.4.9.7 0 .7.8.1 2.4-.5 1.3-.6 2.7-.3 3 .3.3.8 3.2 1 6.3.4 6.9.9 11.7 1.8 15.8.3 1.6.7 3.9.9 5 .5 2.7 3.5 14.2 4.8 18.5 1.3 4.4 1.9 6.4 2 7 0 .3.5 1.6 1 3s1.1 3.3 1.3 4.2c1.7 8.5 23.9 57.2 28.2 62 .9 1 1.2 1.8.7 1.8s-.4.4.1.8c.6.4 3.5 4.7 6.4 9.7 5.9 9.7 17.6 27.1 19.8 29.3.7.7 1.3 1.7 1.3 2.1 0 .4 1.2 2.1 2.7 3.9 1.6 1.7 3.7 4.3 4.8 5.9 2.7 3.7 8.8 10.7 9.8 11.1.4.2.7.8.7 1.2 0 .5 2.1 3.1 4.8 5.8 2.6 2.7 5.7 6 6.8 7.3 3.7 4.2 16 15.5 19.5 18 1.9 1.3 4 3.1 4.7 4.1.7 1 1.8 1.8 2.3 1.8.9 0 1.7.5 5.8 4 2.8 2.4 19.6 11.3 24.6 13.1 7.5 2.6 12 3.4 19.5 3.3 10.6-.1 13.8-.5 15.2-2.1.6-.7 2.1-1.3 3.4-1.3 1.3 0 2.4-.5 2.4-1.2 0-.6.3-.9.6-.5.4.3 2.6-.7 5-2.3 2.3-1.7 4.7-3 5.3-3 .6 0 1.1-.5 1.1-1.1 0-.5.5-.7 1-.4.6.3 1 .2 1-.3s.8-1.2 1.8-1.6c.9-.3 4.6-2.4 8.1-4.6 3.4-2.2 6.5-4 6.7-4 .2 0 3.5-2 7.4-4.5 3.9-2.5 7.5-4.5 8-4.5.6 0 1-.5 1-1.1 0-.5.4-.8.9-.5.5.4 1.1.3 1.3-.2.4-.9 12.6-8.2 13.8-8.2.5 0 1-.4 1.2-.8.2-.5 3.4-2.6 7.1-4.6 3.7-2.1 7.4-4.5 8.2-5.3.8-.8 1.5-1.1 1.5-.7 0 .4 1.2-.5 2.6-2 1.5-1.4 3-2.6 3.4-2.6.4 0 2.4 1.6 4.4 3.5 2.1 1.9 3.9 3.5 4.2 3.5.4 0 3.3 2.3 5.8 4.5 2 1.9 17.4 12.5 18 12.5.4 0 2.5 1.2 4.8 2.6 19.3 12.2 52.2 24.4 75.8 28 2.5.3 5.6.8 7 1.1 17 2.7 43.6 2.4 63-.9 3.6-.5 7.4-1.2 8.5-1.3 1.1-.2 6.3-1.5 11.5-3 5.2-1.4 11.2-3 13.3-3.6 2.1-.5 4.5-1.3 5.5-1.8 1.8-1 5.1-2.3 6.7-2.6.6-.2 3.2-1.2 5.8-2.4 2.6-1.1 6.8-3.1 9.5-4.2 2.6-1.2 5-2.7 5.4-3.3.4-.6.8-.7.8-.3 0 .9 8.4-3.7 11.3-6.1.9-.8 1.7-1.2 1.7-.9 0 1.5 24.1-15.8 31.5-22.5 1.6-1.6 3.2-2.8 3.5-2.8.3 0 1.7 1.1 3.2 2.5 1.5 1.4 2.9 2.5 3.2 2.5.3 0 2.5 1.3 4.9 3 2.5 1.6 5 3 5.6 3 .6 0 1.1.3 1.1.8 0 .4 1.5 1.3 3.3 2.1 1.7.8 3.4 1.7 3.7 2.1.3.3 3.2 2.2 6.5 4 3.3 1.9 6.2 3.7 6.3 4.2.2.4.8.8 1.3.8s3.8 1.8 7.4 4c3.6 2.2 6.9 4 7.4 4s1.1.3 1.3.7c.4 1 17.4 11.3 18.6 11.3.5 0 1.7.9 2.7 2 .9 1 2 1.9 2.4 1.8.3-.1 2.4.9 4.6 2.3 2.2 1.3 4.2 2.4 4.5 2.5.3 0 1.9.6 3.5 1.3 5.3 2.1 5.8 2.2 13 2.8 5.8.4 13.5-.4 19.5-2.2 9.6-2.9 30.6-15.2 40.9-24.2 6.7-5.7 18.9-17.3 23-21.7 2-2.2 4.3-4.7 5.1-5.6.8-.8 3.5-4 6-7s4.7-5.7 5-6c3.7-3.2 24.9-33.9 35.5-51.5 6-9.9 20.5-38.4 20.5-40.3 0-.8.9-2.5 2-3.9s1.7-3 1.4-3.5c-.3-.5-.2-1.4.3-2.1 1.1-1.3 7.2-17.5 7.7-20.4.3-1 1.1-3.8 1.9-6.3 1.5-4.3 3.6-11.8 4.2-15 .2-.8.4-1.6.5-1.8.3-.2.3-.5 1.3-4.7.9-4.1 1.9-9.5 2.2-12.5.2-1.4.4-2.5.5-2.5.3 0 1.4-18.5 1-19.5 0-.3-.3-3.4-.5-7-.4-8-2.6-16.4-6.3-23.8-2.8-5.8-12.2-16.2-14.7-16.2-.7 0-1.5-.3-1.7-.8-.3-.6-11-7.3-17.3-10.8-1.1-.6-7.4-4.3-14-8.3-20.7-12.6-21.6-13.1-22.6-13.1-.5 0-.9-.5-.9-1 0-.6-.4-1-.8-1-.5 0-6-3.1-12.3-6.9-6.3-3.7-13.8-7.6-16.6-8.5-7.4-2.4-17.5-2.7-25-.6-3.5 1-6.3 1.4-6.3 1 0-.4.7-2.1 1.5-3.6.8-1.6 1.5-3.6 1.5-4.4 0-.8.7-2.8 1.5-4.4.9-1.6 1.7-3.7 1.9-4.5.2-.9.9-3 1.5-4.6.7-1.7 1.9-5 2.7-7.5.9-2.5 1.8-5.2 2.1-6 .4-.8.7-1.7.8-2 .1-.3.5-1.3.9-2.2.4-.9.8-2.2 1-3 .1-.7.4-1.8.7-2.3.6-.9 4.2-11.3 4.4-12.5.1-.6 8.5-26 9.2-28 .3-.8.7-2.1.9-2.7.1-.7 1.6-5.7 3.3-11.1 3.2-9.9 4.2-13.7 4.3-16 .1-.6.4-1.2.8-1.2s.7-.6.7-1.3c0-.6 1.2-5.5 2.7-10.7 1.5-5.2 2.9-10.4 3.1-11.4.3-1 1.4-5.5 2.6-10 1.1-4.5 2.2-9 2.4-10.1.1-1.1.5-2.7.8-3.5.3-.8 1.1-4 1.7-7 .6-3 2-9.5 3.1-14.4 1-4.8 1.6-9.2 1.4-9.6-.3-.5-.1-1.1.4-1.5.5-.3.9-1.3.9-2.3 0-.9.3-3.3.7-5.2.4-1.9.9-4.6 1-6 .2-1.4.4-2.5.5-2.5.1 0 .3-1.4.5-3 .2-1.7.7-5 1-7.5.7-4.8.9-5.9 2-16 1.3-11.3 1.4-12.2 2-27 .4-7.9.8-14.7 1.1-15.1.2-.4 0-1.1-.6-1.4-.8-.5-.8-1.1-.1-1.9.6-.7.8-1.5.5-1.9-.3-.3-.8-4.9-1-10.2-.5-12.7-.9-16.1-3.1-27.5-.3-1.9-.7-4-.8-4.5-.4-3.3-1.9-9.2-2.5-10.4-.6-1 .3-2.3 2.9-4.1 3.1-2.2 12.6-8.3 18-11.5.9-.6 4.8-3.1 8.6-5.6 20.8-13.6 35.6-22.9 36.5-22.9.6 0 1-.3 1-.8 0-.4 2-1.8 4.5-3.2 2.5-1.4 4.5-2.8 4.5-3.2 0-.5.5-.8 1-.8.9 0 7.2-6.1 10.7-10.3 1.8-2.2 5.1-9.1 6.9-14.4 1.8-5 2.6-21.1 1.2-21.9-.5-.3-.6-.9-.4-1.3.6-.9-1.7-7.9-4.1-12.5-2.6-5.3-17.1-24.2-21.7-28.4-13.4-12.3-34.5-15.9-50.6-8.5-3 1.4-6.4 2.9-7.5 3.4-1.1.5-2.7 1.3-3.5 1.7-8.4 4.8-19 10-19 9.4 0-.4-.4-.2-.8.3-.4.6-5.2 3.3-10.7 6.1-5.5 2.8-20.2 10.3-32.7 16.7-12.4 6.4-23.3 11.7-24.2 11.7-.9 0-1.9-.8-2.2-1.8-3-9.9-25.3-43.4-40.3-60.6-15.4-17.5-26.6-28.6-44.7-44.1-1.7-1.4-6-4.8-12.9-9.9-3.3-2.5-6.4-4.9-7-5.3-.5-.5-3.5-2.4-6.5-4.3s-5.7-3.7-6-4c-.3-.3-1.6-1.1-2.9-1.8-1.3-.8-4-2.3-6-3.5-4.5-2.6-27.4-14.4-28.1-14.5-.8-.1-6.2-2.2-9.5-3.7-1.6-.8-5.7-2.4-9-3.5-3.3-1.2-6.7-2.4-7.5-2.7-.8-.3-1.9-.7-2.5-.8-.5-.2-4.1-1.2-8-2.3-3.8-1.2-8.1-2.3-9.5-2.6-1.4-.3-5.5-1.2-9.1-2-9-2-11.1-2.4-20.9-3.7-4.7-.6-9.6-1.3-11-1.5-2.9-.6-49.5-1.5-50.1-1z"/>
</svg>